<svg id="Capa_1" data-name="Capa 1" xmlns="http://www.w3.org/2000/svg" viewBox="0 0 1621.04 682"><defs><style>.cls-1{opacity:0.83;}.cls-2{fill:#fff;}</style></defs><title>logo</title><g class="cls-1"><path class="cls-2" d="M972.1,604.7l-15.66-38.54H889.87L874.21,604.7H855l58.53-144.26h19.17L991.27,604.7ZM923.05,484.14l-26.79,66h53.58Z" transform="translate(-150.32 -210)"/><path class="cls-2" d="M1192.2,599.14a40.67,40.67,0,0,1-22.67,6.8c-11.34,0-16.08-5.15-16.08-18.34V543.9c0-17.1-6-24.11-22-24.11-14.63,0-26,8-31.74,13.19a60.72,60.72,0,0,1,.83,9.07V604.7h-16.7V543.9c0-17.1-6-24.11-22-24.11-17.31,0-29.67,10.93-33.79,15.25V604.7h-16.7V512.37L1028,507v14.63c1.85-2.06,15.66-16.28,37.3-16.28,16.07,0,26.79,6.39,31.73,17.93.21-1.24,14.64-17.93,37.92-17.93,23.5,0,35.24,13.39,35.24,36.68v45.13c0,3.92,1.45,5.57,4.74,5.57,5.77,0,14-3.09,14-3.09Z" transform="translate(-150.32 -210)"/><path class="cls-2" d="M1216.1,491.15a12.37,12.37,0,1,1,12.16-12.37A12,12,0,0,1,1216.1,491.15Zm-7.83,113.55V508.25H1225V604.7Z" transform="translate(-150.32 -210)"/><path class="cls-2" d="M1332.33,594.81c-5.77,4.94-17.52,13-33.18,13-31.74,0-48.64-22.46-48.64-51.93,0-28.65,20.61-50.49,56.06-50.49,24.52,0,42.45,14.42,42.45,14.42v92.54c0,30.29-15,49.46-48.64,49.46a65.44,65.44,0,0,1-37.92-12l6.39-12.57a53.37,53.37,0,0,0,31.53,10.1c21.85,0,31.95-9.89,31.95-34.83Zm0-68.83c-5.15-3.1-13.6-6.19-27-6.19-23.49,0-38.13,13-38.13,36.07,0,24.93,12,37.51,35,37.51a42,42,0,0,0,30.09-12.78Z" transform="translate(-150.32 -210)"/><path class="cls-2" d="M1427.54,607.79c-36.48,0-53.59-23.29-53.59-51.11,0-27.61,17.11-51.31,53.59-51.31s53.58,23.7,53.58,51.31C1481.12,584.5,1464,607.79,1427.54,607.79Zm36.88-51.11c0-20.61-12.15-36.89-36.88-36.89s-36.89,16.28-36.89,36.89c0,20.82,12.16,36.69,36.89,36.69S1464.42,577.5,1464.42,556.68Z" transform="translate(-150.32 -210)"/><path class="cls-2" d="M1581.27,527.83s-12-8-33.38-8c-19.37,0-29.27,6.19-29.27,15.25,0,11.13,13.6,12.78,29.27,15.25,19,3.1,41.21,8.25,41.21,30.71,0,16.69-16.07,26.79-44.51,26.79-29.26,0-45.13-12.36-45.13-12.36l6.18-13s15,10.93,38.95,10.93c17.52,0,27.82-5.36,27.82-12.37,0-10.3-10.92-12.78-24.73-15-20-3.71-45.75-6-45.75-30.92,0-14.63,12.57-29.67,46-29.67,25.76,0,40.18,10.3,40.18,10.3Z" transform="translate(-150.32 -210)"/><path class="cls-2" d="M1696.88,542.33c-7.16,3.48-17.61,11.37-17.61,27.15,0,15,13,23.85,32.83,23.85a54.18,54.18,0,0,0,20-3.49l9.9,11.38c-8.25,4-18.16,6.42-29.9,6.42-29,0-48.43-13.4-48.43-37.79,0-19.82,15.23-31.56,24.22-36.69-7.34-8.62-11.74-17.61-11.74-27.89,0-18,13.76-31.37,38.52-31.37,26.42,0,37.79,13.21,37.79,13.21l-7.15,11.38s-10.09-10.28-30.64-10.28c-13.76,0-22,7.34-22,17.06,0,11.74,8.44,19.08,16.51,27.89L1749,576.08a37,37,0,0,0,5.5-19.63h15.59a50.25,50.25,0,0,1-10.64,30.82l11.93,12.84-10.64,10.46Z" transform="translate(-150.32 -210)"/><path class="cls-2" d="M991.27,852V752.87L946.13,852H933.36l-45.14-99.13V852H870.09V707.74h16.07l54.2,116,53-116h16.07V852Z" transform="translate(-150.32 -210)"/><path class="cls-2" d="M1157.58,846.44a40.67,40.67,0,0,1-22.67,6.8c-8,0-14-3.09-15.67-11.54-5.56,4.74-17.51,13.39-33.59,13.39-31.73,0-48.63-22.46-48.63-51.93,0-28.65,20.6-50.49,56-50.49,24.53,0,42.46,14.42,42.46,14.42v67.39c0,3.92,1.44,5.57,4.74,5.57,5.76,0,14-3.09,14-3.09Zm-38.75-73.16c-5.15-3.1-13.6-6.19-27-6.19-23.49,0-38.12,14.43-38.12,36.07,0,23.49,12,37.51,35,37.51a42,42,0,0,0,30.09-12.78Z" transform="translate(-150.32 -210)"/><path class="cls-2" d="M1184.77,810.16c2.27,17.73,14.22,30.51,36.48,30.51,21.85,0,35.24-11.55,35.24-11.55l5.15,11.75s-14.63,14.22-40.39,14.22c-36.48,0-53.58-23.29-53.58-51.11,0-27.61,16.69-51.31,52.55-51.31,37.1,0,46.58,28.64,46.58,43.69a42.83,42.83,0,0,1-2.27,13.8ZM1250.93,797v-1.86c0-14.43-9.07-28-30.71-28-21.43,0-33.18,12.78-35.45,29.89Z" transform="translate(-150.32 -210)"/><path class="cls-2" d="M1365.92,775.13s-12-8-33.38-8c-19.38,0-29.27,6.19-29.27,15.25,0,11.13,13.6,12.78,29.27,15.25,19,3.09,41.21,8.25,41.21,30.71,0,16.69-16.07,26.79-44.51,26.79-29.27,0-45.13-12.36-45.13-12.36l6.18-13s15,10.93,39,10.93c17.52,0,27.82-5.36,27.82-12.37,0-10.3-10.92-12.78-24.73-15-20-3.71-45.75-6-45.75-30.92,0-14.63,12.57-29.67,46-29.67,25.76,0,40.18,10.3,40.18,10.3Z" transform="translate(-150.32 -210)"/><path class="cls-2" d="M1463.19,846.85a42.87,42.87,0,0,1-24.52,8.24c-20.41,0-32.77-9.48-32.77-32.35v-53h-17.31l4.12-14.22h13.19v-23.9l16.69-5.36v29.26H1458v14.22h-35.45v53.58c0,12,5.15,16.9,16.49,16.9S1457,835.1,1457,835.1Z" transform="translate(-150.32 -210)"/><path class="cls-2" d="M1481.53,852V759.67l16.69-5.35v19.57c1.65-2.68,14.22-21.22,34.21-21.22,10.72,0,15.25,3.29,15.25,3.29l-4.53,14.64s-3.5-2.48-13.19-2.48c-15.66,0-27.41,14.22-31.74,20.41V852Z" transform="translate(-150.32 -210)"/><path class="cls-2" d="M1608.89,855.09c-36.48,0-53.58-23.29-53.58-51.11,0-27.61,17.1-51.31,53.58-51.31s53.58,23.7,53.58,51.31C1662.47,831.8,1645.37,855.09,1608.89,855.09ZM1645.78,804c0-20.61-12.16-36.89-36.89-36.89S1572,783.37,1572,804c0,20.82,12.16,36.69,36.89,36.69S1645.78,824.8,1645.78,804Z" transform="translate(-150.32 -210)"/><path class="cls-2" d="M1762.63,775.13s-12-8-33.39-8c-19.37,0-29.26,6.19-29.26,15.25,0,11.13,13.6,12.78,29.26,15.25,19,3.09,41.22,8.25,41.22,30.71,0,16.69-16.08,26.79-44.52,26.79-29.26,0-45.13-12.36-45.13-12.36l6.18-13s15,10.93,39,10.93c17.52,0,27.83-5.36,27.83-12.37,0-10.3-10.93-12.78-24.74-15-20-3.71-45.75-6-45.75-30.92,0-14.63,12.58-29.67,46-29.67,25.76,0,40.19,10.3,40.19,10.3Z" transform="translate(-150.32 -210)"/><path class="cls-2" d="M631.47,654.85c11.46-16.14,53.23-37.5,73.82-13.65,19.64,22.75,3.05,51.71-12.38,66.75-16.71,16.3-44.77,22.37-70.83,9.2-41.18-20.81-8.51-56.18,13.5-68.92,7.89-4.58,1.49-11.25-6.83-8.45-28.07,9.44-64.58,52.65-31.2,80.82,34,28.68,80.89,18.15,105.29-4.14,20.37-18.62,47.9-66.5,8.46-91.78-32.45-20.8-81.4,8.5-96.58,28.82-4.24,5.68,13.52,5.9,16.75,1.35Z" transform="translate(-150.32 -210)"/><path class="cls-2" d="M590.2,497.37c17.18-25.5,79.55-55.18,92.93-6.77C693.38,527.71,656,572,620.8,578.91c-16.35,3.22-34.43.74-49.34-8.64-21.3-13.4-20.29-32.33-6.92-48.74,15.74-19.33,36.52-35.72,57.92-49.13,9.87-6.19,2.24-12.58-7.39-9.87-18.55,5.22-35.63,23.46-48.79,35.87-13.39,12.62-30.72,29.31-32.89,48.67-2.51,22.49,20.39,39.4,41,46,24.77,7.92,51.16,3.51,72.08-8.12,34.66-19.27,80.25-79,47.21-120.07-33.4-41.47-103.26,4.47-122.64,31.78-5.11,7.21,15.3,6.5,19.19.73Z" transform="translate(-150.32 -210)"/><path class="cls-2" d="M464.16,587c97.52,59.64,103.59,199,6.76,257.56-31,18.75-69.88,34-107.16,27.9-59.54-9.81-87.72-77.28-82.2-130.71,2.22-21.47,8.51-44.74,19.15-63.58,11-19.49,49.91-41.48,59.21-7.78,2.24,8.13,1.91,20.6.93,27.39S368,717.11,375.93,711a90.24,90.24,0,0,1,14.74-9.16c5-2.46,10.76-5.43,16.4-6,19.83-1.84,30.53,18.44,26.34,35.92-4.67,19.48-23.12,38.28-37.56,51.29C357.31,817.8,292.31,839,244,807.63c-43.17-28-58.83-86.38-66.87-133.38-6.84-39.9-5.67-77.58-3.5-117.55,2-36,3.88-71.37.43-107.41-3.32-34.71-6.58-69-3.79-103.82C171.71,327.7,176.39,310.9,198,316c21.49,5,30.92,27.14,33.05,46.73,2.22,20.45,1.31,41.51,1.42,62,.14,27.07.07,54.14.54,81.21.29,16.42-4.39,44.83,10.46,56.84,19.78,16,32.26-7.66,42.41-20.84,20.89-27.13,38.8-55.32,55.43-85.22,29.08-52.26,55.56-106,81.67-159.76,7.79-16.06,15.22-32.37,23.55-48.16,1.51-2.87,2.81-6,4.82-8.63,10.5-13.56,40.12-14.91,40.24,7.82,0,8.16-6.42,18.71-9.41,26q-9.13,22.26-18.25,44.53-23.19,56.65-46.35,113.3c-6.1,14.92-22.9,39.71-19.8,57,2.42,13.47,20.67,26.19,33.84,19.48,5.29-2.7,7.73-8.13,10.74-12.93,38.6-61.49,77.2-123,116.91-183.8,7.19-11,14.11-22.37,22-32.89a70.47,70.47,0,0,1,5.44-7c13.41-13.82,42.47-11.61,38.59,13.06-1.21,7.69-8.29,16.29-12,22.83q-11.52,20.3-23.09,40.57C557.09,406.28,520,463.52,490.12,523.5c-5.21,10.48-5.71,17.89,2.65,27.62s21.54.65,12.89-9.42c-5.53-6.44,30.63-57.9,34.45-64.59Q574,417.68,607.93,358.24c11.42-20,34.89-47.89,36.23-72.17,1.16-20.85-16.67-41.24-37.69-44-16-2.09-29.21,8-38.47,19.58-21.69,27.06-39,58.64-57.66,87.79q-35.43,55.43-70.41,111.14c-4.26,6.78-10.63,23.69-17.58,28-8.41,5.2-5.21-1.39-3.85-6.52,9.48-35.88,29.23-71.49,43.25-105.77,14.3-34.94,28.81-69.79,42.94-104.8,4.71-11.66,7.2-23.36,1.3-35.54-9.2-19-34.59-32.23-54.39-22.84-12.44,5.91-18,16.52-23.78,28.06-10.31,20.6-20.15,41.45-30.26,62.15C367.48,364.91,337.24,427.13,301,485.42c-9.93,16-21.59,30.6-33,45.57-1.88,2.48-5.08,8.19-7.75,10.45-13.27,11.24-6.34,4.7-8.29.23-2.14-4.92-.54-14.16-.67-19.63-.77-30.71-.62-61.43-.77-92.15-.23-43.41,6.26-105.79-42-128.93-70.68-33.89-58.73,79.29-55.4,115.15,3.78,40.61,5.22,79.49,3.17,120.13-1.23,24.3-3.94,48.69-3.29,73.08,2.2,82.75,27.18,215.57,129.08,230.42,55.27,8.06,106.21-15.65,142.06-55.58,15.3-17,29.74-36.43,28.14-60.64-1.51-22.87-17.56-46.69-42.5-47.54-16.64-.57-33.88,8.47-46.6,18.22l15.07,13.28c3.07-21.2,1.81-48.79-16-64.21-27.33-23.72-65.08-2.85-78.67,23.93-28.58,56.26-29.06,124.86,9.9,177.82,37.81,51.39,98.64,56.89,153.92,34.43,49-19.88,85.23-52.78,103.66-103.41,29-79.78-10.15-159.35-83.24-204-11.76-7.19-13.2,9.19-3.75,15Z" transform="translate(-150.32 -210)"/></g></svg>