<svg id="Capa_1" data-name="Capa 1" xmlns="http://www.w3.org/2000/svg" viewBox="0 0 629.26 779.6"><defs><style>.cls-1{opacity:0.86;}.cls-2{fill:#fff;}</style></defs><title>lupaicon</title><g class="cls-1"><path class="cls-2" d="M1030.73,585.87a228.9,228.9,0,1,1,226-267.47,18.82,18.82,0,1,1-37.1,6.33A191.31,191.31,0,1,0,920.52,513.14c86.06,60.94,205.73,40.51,266.7-45.61a18.81,18.81,0,1,1,30.7,21.75A228.87,228.87,0,0,1,1030.73,585.87Z" transform="translate(-627.74 -128)"/><path class="cls-2" d="M693.53,907.6a63.18,63.18,0,0,1-36.65-11.7l-2.41-1.7a63.55,63.55,0,0,1-15-88.52L859.32,496a18.83,18.83,0,0,1,26.24-4.44L960.79,545a18.84,18.84,0,0,1,4.45,26.25L745.36,880.9A63.43,63.43,0,0,1,693.53,907.6ZM879.12,533.13l-209,294.34a25.86,25.86,0,0,0,6.12,36l2.39,1.71h0a25.88,25.88,0,0,0,36-6.09l209-294.35Z" transform="translate(-627.74 -128)"/></g></svg>