<svg id="Capa_1" data-name="Capa 1" xmlns="http://www.w3.org/2000/svg" viewBox="0 0 786.32 788"><defs><style>.cls-1{opacity:0.86;}.cls-2{fill:#fff;}</style></defs><title>usericon</title><g class="cls-1"><path class="cls-2" d="M959.58,523.66c-112.54,0-204.17-91.47-204.32-204A204.32,204.32,0,0,1,959.3,115h.28a203.07,203.07,0,0,1,144.29,59.64,17.7,17.7,0,0,1-25,25.06,167.85,167.85,0,0,0-119.29-49.31h-.24a168.94,168.94,0,0,0,.24,337.88h.25a169,169,0,0,0,168.71-169.18,17.68,17.68,0,0,1,17.66-17.71h0a17.68,17.68,0,0,1,17.69,17.67,204.32,204.32,0,0,1-204,204.61Z" transform="translate(-567.16 -115)"/><path class="cls-2" d="M633.35,903a66.4,66.4,0,0,1-50.19-22.91,64.84,64.84,0,0,1-15.36-51.68c27.59-193.64,196.13-339.86,392-340.14h.53c195.66,0,364.31,145.67,392.44,339A64.79,64.79,0,0,1,1337.58,879a66.47,66.47,0,0,1-50.22,23L633.44,903Zm327-379.34h-.49c-178.42.24-331.92,133.41-357,309.75a29.15,29.15,0,0,0,7,23.49,31.16,31.16,0,0,0,23.48,10.73h0l653.92-.93h0a31.16,31.16,0,0,0,23.49-10.79,29.17,29.17,0,0,0,7-23.52C1292.18,656.32,1138.56,523.66,960.36,523.66Z" transform="translate(-567.16 -115)"/></g></svg>